<svg xmlns="http://www.w3.org/2000/svg" viewBox="0 0 24 24" aria-hidden="true">
  <path fill="#1b1f23" d="M12 .7a11.3 11.3 0 0 0-3.6 22c.6.1.8-.3.8-.6v-2.2c-3.3.7-4-1.4-4-1.4-.5-1.3-1.2-1.7-1.2-1.7-1-.7.1-.7.1-.7 1.1.1 1.7 1.1 1.7 1.1 1 .1.7 2.3 3.5 1.7.1-.7.4-1.1.7-1.4-2.7-.3-5.6-1.3-5.6-6A4.7 4.7 0 0 1 6.3 8c-.1-.3-.5-1.5.1-3 0 0 1-.3 3.2 1.2a11 11 0 0 1 5.8 0C17.7 4.7 18.7 5 18.7 5c.6 1.5.2 2.7.1 3a4.7 4.7 0 0 1 1.3 3.3c0 4.7-2.9 5.7-5.7 6 .5.4.8 1 .8 2.1v2.7c0 .3.2.7.8.6A11.3 11.3 0 0 0 12 .7"/>
</svg>
